<?xml version="1.0" encoding="utf-8"?>
<!-- Generator: Adobe Illustrator 22.1.0, SVG Export Plug-In . SVG Version: 6.00 Build 0)  -->
<svg version="1.1" id="Layer_4" xmlns="http://www.w3.org/2000/svg" xmlns:xlink="http://www.w3.org/1999/xlink" x="0px" y="0px"
	 viewBox="0 0 721 200" style="enable-background:new 0 0 721 200;" xml:space="preserve">
<style type="text/css">
	.st0{fill:none;}
	.st1{fill:#FFC107;}
	.st2{fill:#0F9D58;}
	.st3{opacity:0.2;fill:#BF360C;enable-background:new    ;}
	.st4{opacity:0.2;fill:#263238;enable-background:new    ;}
	.st5{opacity:0.2;fill:#FFFFFF;enable-background:new    ;}
	.st6{fill:url(#XMLID_5_);}
	.st7{fill:url(#XMLID_21_);}
	.st8{fill:#4285F4;}
	.st9{fill:#DB4437;}
	.st10{opacity:0.2;fill:#1A237E;enable-background:new    ;}
	.st11{opacity:0.2;fill:#3E2723;enable-background:new    ;}
	.st12{fill:url(#XMLID_22_);}
	.st13{fill:#767676;}
</style>
<g id="XMLID_1_">
	<g id="XMLID_50_">
		<g id="XMLID_72_">
			<path id="XMLID_7_" class="st0" d="M122.5,90.6L70.1,0H0l57.8,100L0,200h70.1l52.4-90.6C125.8,103.6,125.8,96.4,122.5,90.6z"/>
			<path id="XMLID_80_" class="st1" d="M92.4,159.8l-16.6-28.7L35.9,200h34.2l22.8-39.4L92.4,159.8z"/>
			<path id="XMLID_8_" class="st0" d="M122.5,90.6L70.1,0H0l57.8,100L0,200h70.1l52.4-90.6C125.8,103.6,125.8,96.4,122.5,90.6z"/>
			<path id="XMLID_39_" class="st2" d="M57.8,100l18,31.1L35.9,200H0L57.8,100z"/>
			<path id="XMLID_9_" class="st0" d="M122.5,90.6L70.1,0H0l57.8,100L0,200h70.1l52.4-90.6C125.8,103.6,125.8,96.4,122.5,90.6z"/>
			<path id="XMLID_38_" class="st3" d="M70.1,198.4H36.8l-0.9,1.6h34.2l22.8-39.4l-0.5-0.8L70.1,198.4z"/>
			<path id="XMLID_10_" class="st0" d="M122.5,90.6L70.1,0H0l57.8,100L0,200h70.1l52.4-90.6C125.8,103.6,125.8,96.4,122.5,90.6z"/>
			<path id="XMLID_37_" class="st4" d="M0.9,198.4L0,200h35.9l0.9-1.6H0.9z"/>
			<path id="XMLID_11_" class="st0" d="M122.5,90.6L70.1,0H0l57.8,100L0,200h70.1l52.4-90.6C125.8,103.6,125.8,96.4,122.5,90.6z"/>
			<path id="XMLID_36_" class="st5" d="M0,200h0.9l57.4-99.2l-0.5-0.8L0,200z"/>
			<path id="XMLID_12_" class="st0" d="M122.5,90.6L70.1,0H0l57.8,100L0,200h70.1l52.4-90.6C125.8,103.6,125.8,96.4,122.5,90.6z"/>
			
				<radialGradient id="XMLID_5_" cx="406.547" cy="180.274" r="44.264" gradientTransform="matrix(1.5625 0 0 1.5625 -542.61 -121.719)" gradientUnits="userSpaceOnUse">
				<stop  offset="0" style="stop-color:#BF360C;stop-opacity:0.2"/>
				<stop  offset="1" style="stop-color:#BF360C;stop-opacity:2.000000e-02"/>
			</radialGradient>
			<path id="XMLID_79_" class="st6" d="M92.9,160.6l-17.1-29.5l-4.2,7.2L92.9,160.6z"/>
			<path id="XMLID_13_" class="st0" d="M122.5,90.6L70.1,0H0l57.8,100L0,200h70.1l52.4-90.6C125.8,103.6,125.8,96.4,122.5,90.6z"/>
			
				<radialGradient id="XMLID_21_" cx="406.422" cy="180.554" r="44.623" gradientTransform="matrix(1.5625 0 0 1.5625 -542.61 -121.719)" gradientUnits="userSpaceOnUse">
				<stop  offset="0" style="stop-color:#263238;stop-opacity:0.2"/>
				<stop  offset="1" style="stop-color:#263238;stop-opacity:2.000000e-02"/>
			</radialGradient>
			<path id="XMLID_78_" class="st7" d="M71.6,138.3l4.2-7.2l-18-31.1l-8.5,14.8L71.6,138.3z"/>
			<path id="XMLID_14_" class="st0" d="M122.5,90.6L70.1,0H0l57.8,100L0,200h70.1l52.4-90.6C125.8,103.6,125.8,96.4,122.5,90.6z"/>
			<g id="XMLID_75_">
				<g id="XMLID_76_">
					<path id="XMLID_77_" class="st8" d="M35.9,0H0l92.9,160.6l17.9-31.1L35.9,0z"/>
				</g>
			</g>
			<path id="XMLID_15_" class="st0" d="M122.5,90.6L70.1,0H0l57.8,100L0,200h70.1l52.4-90.6C125.8,103.6,125.8,96.4,122.5,90.6z"/>
			<path id="XMLID_35_" class="st9" d="M122.5,109.4c3.4-5.8,3.4-13,0-18.8L70.1,0H35.9l74.9,129.5L122.5,109.4z"/>
			<path id="XMLID_16_" class="st0" d="M122.5,90.6L70.1,0H0l57.8,100L0,200h70.1l52.4-90.6C125.8,103.6,125.8,96.4,122.5,90.6z"/>
			<path id="XMLID_34_" class="st10" d="M110.8,129.5l-0.4-0.8L92.9,159L0.9,0H0l92.9,160.6L110.8,129.5z"/>
			<path id="XMLID_17_" class="st0" d="M122.5,90.6L70.1,0H0l57.8,100L0,200h70.1l52.4-90.6C125.8,103.6,125.8,96.4,122.5,90.6z"/>
			<path id="XMLID_2_" class="st5" d="M70.1,1.6l52.4,90.6c1.5,2.7,2.3,5.6,2.5,8.6c0.1-3.5-0.7-7-2.5-10.2L70.1,0H0l0.9,1.6H70.1z"
				/>
			<path id="XMLID_18_" class="st0" d="M122.5,90.6L70.1,0H0l57.8,100L0,200h70.1l52.4-90.6C125.8,103.6,125.8,96.4,122.5,90.6z"/>
			<path id="XMLID_74_" class="st11" d="M110.8,129.5l11.6-20.1c1.8-3.1,2.6-6.7,2.5-10.2c-0.1,3-0.9,5.9-2.5,8.6l-12.1,20.9
				L110.8,129.5z"/>
			<path id="XMLID_19_" class="st0" d="M122.5,90.6L70.1,0H0l57.8,100L0,200h70.1l52.4-90.6C125.8,103.6,125.8,96.4,122.5,90.6z"/>
			
				<radialGradient id="XMLID_22_" cx="346.271" cy="78.9" r="134.35" gradientTransform="matrix(1.5625 0 0 1.5625 -542.61 -121.719)" gradientUnits="userSpaceOnUse">
				<stop  offset="0" style="stop-color:#FFFFFF;stop-opacity:0.1"/>
				<stop  offset="1" style="stop-color:#FFFFFF;stop-opacity:0"/>
			</radialGradient>
			<path id="XMLID_73_" class="st12" d="M122.5,90.6L70.1,0H0l57.8,100L0,200h70.1l52.4-90.6C125.8,103.6,125.8,96.4,122.5,90.6z"/>
		</g>
	</g>
</g>
<g id="XMLID_6_">
	<path id="XMLID_3_" class="st13" d="M359.9,104.4c0,22-6.5,39.6-19.6,52.7c-14.8,15.6-34.1,23.4-57.9,23.4
		c-22.8,0-42.1-7.9-58.1-23.7c-15.9-15.8-23.9-35.4-23.9-58.7s8-42.9,23.9-58.7s35.3-23.7,58.1-23.7c11.3,0,22.1,2.2,32.4,6.6
		s18.5,10.3,24.7,17.6l-13.9,13.9C315.1,41.2,300.7,35,282.3,35c-16.6,0-31,5.8-43.1,17.5C227.1,64.2,221,79.3,221,98
		s6.1,33.8,18.2,45.5s26.5,17.5,43.1,17.5c17.6,0,32.3-5.9,44.1-17.6c7.6-7.6,12-18.3,13.2-31.9h-57.3v-19h76.4
		C359.5,96.6,359.9,100.6,359.9,104.4L359.9,104.4z"/>
	<path id="XMLID_20_" class="st13" d="M380.3,176.9V19.1h48.2c24.2,0,43.6,7.3,58.2,21.9c14.5,14.6,21.8,33.6,21.8,57
		s-7.3,42.3-21.8,57c-14.5,14.6-33.9,21.9-58.2,21.9H380.3z M400.6,157.5h28c18.2,0,32.6-5.2,43.3-15.6c10.6-10.4,16-25,16-43.8
		c0-18.7-5.3-33.2-16-43.7s-25.1-15.8-43.3-15.8h-28V157.5z"/>
	<path id="XMLID_23_" class="st13" d="M681,104.4c0,22-6.5,39.6-19.6,52.7c-14.8,15.6-34.1,23.4-57.9,23.4
		c-22.8,0-42.1-7.9-58.1-23.7c-15.9-15.8-23.9-35.4-23.9-58.7s8-42.9,23.9-58.7s35.3-23.7,58.1-23.7c11.3,0,22.1,2.2,32.4,6.6
		c10.3,4.4,18.5,10.3,24.7,17.6l-13.9,13.9C636.2,41.2,621.8,35,603.4,35c-16.6,0-31,5.8-43.1,17.5S542.1,79.3,542.1,98
		s6.1,33.8,18.2,45.5s26.5,17.5,43.1,17.5c17.6,0,32.3-5.9,44.1-17.6c7.6-7.6,12-18.3,13.2-31.9h-57.3v-19h76.4
		C680.6,96.6,681,100.6,681,104.4L681,104.4z"/>
</g>
</svg>
