<?xml version="1.0" encoding="utf-8"?>
<!-- Generator: Adobe Illustrator 22.1.0, SVG Export Plug-In . SVG Version: 6.00 Build 0)  -->
<svg version="1.1" id="Layer_4" xmlns="http://www.w3.org/2000/svg" xmlns:xlink="http://www.w3.org/1999/xlink" x="0px" y="0px"
	 viewBox="0 0 536.9 128" style="enable-background:new 0 0 536.9 128;" xml:space="preserve">
<style type="text/css">
	.st0{fill:none;}
	.st1{fill:#FFC107;}
	.st2{fill:#0F9D58;}
	.st3{opacity:0.2;fill:#BF360C;enable-background:new    ;}
	.st4{opacity:0.2;fill:#263238;enable-background:new    ;}
	.st5{opacity:0.2;fill:#FFFFFF;enable-background:new    ;}
	.st6{fill:url(#XMLID_7_);}
	.st7{fill:url(#XMLID_34_);}
	.st8{fill:#4285F4;}
	.st9{fill:#DB4437;}
	.st10{opacity:0.2;fill:#1A237E;enable-background:new    ;}
	.st11{opacity:0.2;fill:#3E2723;enable-background:new    ;}
	.st12{fill:url(#XMLID_35_);}
	.st13{fill:#FFFFFF;}
	.st14{font-family:'Roboto-Regular';}
	.st15{font-size:72px;}
</style>
<g id="XMLID_2_">
	<g id="XMLID_3_">
		<g id="XMLID_4_">
			<path id="XMLID_33_" class="st0" d="M78.7,58L45.1,0H0.3l37,64l-37,64h44.8l33.5-58C80.8,66.3,80.8,61.7,78.7,58z"/>
			<path id="XMLID_32_" class="st1" d="M59.4,102.3L48.8,83.9L23.3,128h21.8l14.6-25.2L59.4,102.3z"/>
			<path id="XMLID_31_" class="st0" d="M78.7,58L45.1,0H0.3l37,64l-37,64h44.8l33.5-58C80.8,66.3,80.8,61.7,78.7,58z"/>
			<path id="XMLID_30_" class="st2" d="M37.3,64l11.5,19.9L23.3,128h-23L37.3,64z"/>
			<path id="XMLID_29_" class="st0" d="M78.7,58L45.1,0H0.3l37,64l-37,64h44.8l33.5-58C80.8,66.3,80.8,61.7,78.7,58z"/>
			<path id="XMLID_28_" class="st3" d="M45.1,127H23.8l-0.5,1h21.8l14.6-25.2l-0.3-0.5L45.1,127z"/>
			<path id="XMLID_27_" class="st0" d="M78.7,58L45.1,0H0.3l37,64l-37,64h44.8l33.5-58C80.8,66.3,80.8,61.7,78.7,58z"/>
			<path id="XMLID_26_" class="st4" d="M0.8,127l-0.5,1h23l0.5-1H0.8z"/>
			<path id="XMLID_25_" class="st0" d="M78.7,58L45.1,0H0.3l37,64l-37,64h44.8l33.5-58C80.8,66.3,80.8,61.7,78.7,58z"/>
			<path id="XMLID_24_" class="st5" d="M0.3,128h0.5l36.8-63.5L37.3,64L0.3,128z"/>
			<path id="XMLID_23_" class="st0" d="M78.7,58L45.1,0H0.3l37,64l-37,64h44.8l33.5-58C80.8,66.3,80.8,61.7,78.7,58z"/>
			
				<radialGradient id="XMLID_7_" cx="59.537" cy="222.374" r="44.264" gradientTransform="matrix(1 0 0 1 0 -120)" gradientUnits="userSpaceOnUse">
				<stop  offset="0" style="stop-color:#BF360C;stop-opacity:0.2"/>
				<stop  offset="1" style="stop-color:#BF360C;stop-opacity:2.000000e-02"/>
			</radialGradient>
			<path id="XMLID_22_" class="st6" d="M59.7,102.8L48.8,83.9l-2.7,4.6L59.7,102.8z"/>
			<path id="XMLID_21_" class="st0" d="M78.7,58L45.1,0H0.3l37,64l-37,64h44.8l33.5-58C80.8,66.3,80.8,61.7,78.7,58z"/>
			
				<radialGradient id="XMLID_34_" cx="59.411" cy="222.654" r="44.623" gradientTransform="matrix(1 0 0 1 0 -120)" gradientUnits="userSpaceOnUse">
				<stop  offset="0" style="stop-color:#263238;stop-opacity:0.2"/>
				<stop  offset="1" style="stop-color:#263238;stop-opacity:2.000000e-02"/>
			</radialGradient>
			<path id="XMLID_20_" class="st7" d="M46.1,88.5l2.7-4.6L37.3,64l-5.5,9.5L46.1,88.5z"/>
			<path id="XMLID_19_" class="st0" d="M78.7,58L45.1,0H0.3l37,64l-37,64h44.8l33.5-58C80.8,66.3,80.8,61.7,78.7,58z"/>
			<g id="XMLID_16_">
				<g id="XMLID_17_">
					<path id="XMLID_18_" class="st8" d="M23.3,0h-23l59.4,102.8l11.5-19.9L23.3,0z"/>
				</g>
			</g>
			<path id="XMLID_15_" class="st0" d="M78.7,58L45.1,0H0.3l37,64l-37,64h44.8l33.5-58C80.8,66.3,80.8,61.7,78.7,58z"/>
			<path id="XMLID_14_" class="st9" d="M78.7,70c2.1-3.7,2.1-8.3,0-12L45.1,0H23.3l47.9,82.9L78.7,70z"/>
			<path id="XMLID_13_" class="st0" d="M78.7,58L45.1,0H0.3l37,64l-37,64h44.8l33.5-58C80.8,66.3,80.8,61.7,78.7,58z"/>
			<path id="XMLID_12_" class="st10" d="M71.2,82.9l-0.3-0.5l-11.2,19.4L0.8,0H0.3l59.4,102.8L71.2,82.9z"/>
			<path id="XMLID_11_" class="st0" d="M78.7,58L45.1,0H0.3l37,64l-37,64h44.8l33.5-58C80.8,66.3,80.8,61.7,78.7,58z"/>
			<path id="XMLID_10_" class="st5" d="M45.1,1l33.5,58c1,1.7,1.5,3.6,1.6,5.5c0.1-2.2-0.4-4.5-1.6-6.5L45.1,0H0.3l0.6,1
				C0.9,1,45.1,1,45.1,1z"/>
			<path id="XMLID_9_" class="st0" d="M78.7,58L45.1,0H0.3l37,64l-37,64h44.8l33.5-58C80.8,66.3,80.8,61.7,78.7,58z"/>
			<path id="XMLID_8_" class="st11" d="M71.2,82.9L78.7,70c1.2-2,1.7-4.3,1.6-6.5c-0.1,1.9-0.6,3.8-1.6,5.5L71,82.4L71.2,82.9z"/>
			<path id="XMLID_6_" class="st0" d="M78.7,58L45.1,0H0.3l37,64l-37,64h44.8l33.5-58C80.8,66.3,80.8,61.7,78.7,58z"/>
			
				<radialGradient id="XMLID_35_" cx="-0.74" cy="121" r="134.35" gradientTransform="matrix(1 0 0 1 0 -120)" gradientUnits="userSpaceOnUse">
				<stop  offset="0" style="stop-color:#FFFFFF;stop-opacity:0.1"/>
				<stop  offset="1" style="stop-color:#FFFFFF;stop-opacity:0"/>
			</radialGradient>
			<path id="XMLID_5_" class="st12" d="M78.7,58L45.1,0H0.3l37,64l-37,64h44.8l33.5-58C80.8,66.3,80.8,61.7,78.7,58z"/>
		</g>
	</g>
</g>
<path class="st13" d="M176.6,33.2c0,7-2.1,12.6-6.2,16.7c-4.7,4.9-10.9,7.4-18.4,7.4c-7.2,0-13.4-2.5-18.4-7.5
	c-5.1-5-7.6-11.2-7.6-18.7s2.5-13.6,7.6-18.7c5.1-5,11.2-7.5,18.4-7.5c3.6,0,7,0.7,10.3,2.1s5.9,3.3,7.8,5.6l-4.4,4.4
	c-3.3-4-7.9-6-13.7-6c-5.3,0-9.8,1.9-13.7,5.6c-3.8,3.7-5.8,8.5-5.8,14.5c0,5.9,1.9,10.7,5.8,14.5c3.9,3.7,8.4,5.6,13.7,5.6
	c5.6,0,10.3-1.9,14-5.6c2.4-2.4,3.8-5.8,4.2-10.1H152v-6h24.3C176.4,30.7,176.6,32,176.6,33.2z M182.9,56.2V6.1h15.3
	c7.7,0,13.9,2.3,18.5,7c4.6,4.6,6.9,10.7,6.9,18.1s-2.3,13.5-6.9,18.1c-4.6,4.6-10.8,7-18.5,7h-15.3V56.2z M189.4,50h8.9
	c5.8,0,10.4-1.7,13.8-5c3.4-3.3,5.1-8,5.1-13.9s-1.7-10.6-5.1-13.9c-3.4-3.3-8-5-13.8-5h-8.9V50z M278.4,33.2c0,7-2.1,12.6-6.2,16.7
	c-4.7,4.9-10.9,7.4-18.4,7.4c-7.2,0-13.4-2.5-18.4-7.5c-5.1-5-7.6-11.2-7.6-18.7s2.5-13.6,7.6-18.7c5.1-5,11.2-7.5,18.4-7.5
	c3.6,0,7,0.7,10.3,2.1s5.9,3.3,7.8,5.6l-4.4,4.4c-3.3-4-7.9-6-13.7-6c-5.3,0-9.8,1.9-13.7,5.6c-3.8,3.7-5.8,8.5-5.8,14.5
	c0,5.9,1.9,10.7,5.8,14.5c3.9,3.7,8.4,5.6,13.7,5.6c5.6,0,10.3-1.9,14-5.6c2.4-2.4,3.8-5.8,4.2-10.1h-18.2v-6H278
	C278.2,30.7,278.4,32,278.4,33.2z M126,122.2V72.1h15.3c7.7,0,13.9,2.3,18.5,7c4.6,4.6,6.9,10.7,6.9,18.1s-2.3,13.5-6.9,18.1
	c-4.6,4.6-10.8,7-18.5,7H126V122.2z M132.4,116h8.9c5.8,0,10.4-1.7,13.8-5c3.4-3.3,5.1-8,5.1-13.9s-1.7-10.6-5.1-13.9
	c-3.4-3.3-8-5-13.8-5h-8.9V116z M187.8,123.3c-5.2,0-9.4-1.7-12.6-5.2s-4.9-7.8-4.9-13.1c0-5,1.6-9.3,4.7-12.9s7.2-5.4,12.1-5.4
	c5.1,0,9.2,1.7,12.2,5c3.1,3.3,4.6,7.7,4.6,13.3l-0.1,1.2h-27.1c0.2,3.5,1.3,6.2,3.5,8.2c2.1,2,4.6,3,7.5,3c4.6,0,7.7-2,9.4-5.9
	l5.7,2.4c-1.1,2.7-3,4.9-5.5,6.7C194.7,122.4,191.5,123.3,187.8,123.3L187.8,123.3z M197,100.9c-0.1-2-1-3.8-2.7-5.6
	c-1.7-1.8-4.1-2.7-7.4-2.7c-2.4,0-4.4,0.7-6.2,2.2c-1.8,1.5-3,3.5-3.6,6L197,100.9L197,100.9z M217.4,122.2l-13.9-34.3h7l10.1,26.6
	h0.1l10.2-26.6h6.9l-14,34.3C223.8,122.2,217.4,122.2,217.4,122.2z M248.1,122.2h-6.4V72.1H271v6.2h-22.8v16.5h20.6v6h-20.6v21.4
	H248.1z M290.4,123.3c-5.2,0-9.4-1.7-12.6-5.2s-4.9-7.8-4.9-13.1c0-5,1.6-9.3,4.7-12.9c3.2-3.6,7.2-5.4,12.1-5.4
	c5.1,0,9.2,1.7,12.2,5c3.1,3.3,4.6,7.7,4.6,13.3l-0.1,1.2h-27.1c0.2,3.5,1.3,6.2,3.5,8.2c2.1,2,4.6,3,7.5,3c4.6,0,7.7-2,9.4-5.9
	l5.7,2.4c-1.1,2.7-3,4.9-5.5,6.7C297.2,122.4,294.1,123.3,290.4,123.3L290.4,123.3z M299.6,100.9c-0.1-2-1-3.8-2.7-5.6
	c-1.7-1.8-4.1-2.7-7.4-2.7c-2.4,0-4.4,0.7-6.2,2.2c-1.8,1.5-3,3.5-3.6,6L299.6,100.9L299.6,100.9z M323.5,123.3
	c-3.8,0-7-0.9-9.5-2.8c-2.5-1.9-4.3-4.2-5.5-7l5.7-2.4c1.8,4.3,4.9,6.4,9.3,6.4c2,0,3.7-0.4,4.9-1.3c1.3-0.9,1.9-2.1,1.9-3.5
	c0-2.2-1.6-3.8-4.7-4.5l-6.9-1.7c-2.2-0.6-4.3-1.6-6.2-3.2c-2-1.6-2.9-3.7-2.9-6.3c0-3,1.3-5.5,4-7.4s5.9-2.8,9.6-2.8
	c3,0,5.7,0.7,8.1,2.1s4.1,3.3,5.1,5.9l-5.6,2.3c-1.3-3-3.9-4.6-7.8-4.6c-1.9,0-3.5,0.4-4.8,1.2c-1.3,0.8-2,1.9-2,3.2
	c0,2,1.5,3.3,4.5,4l6.8,1.6c3.2,0.7,5.6,2,7.1,3.9c1.5,1.8,2.3,3.9,2.3,6.2c0,3.1-1.3,5.6-3.8,7.7
	C330.8,122.3,327.5,123.3,323.5,123.3z M356.4,122.8c-3.6,0-6.3-1-8.2-2.9s-2.8-4.6-2.8-8.1v-18h-6v-5.9h6V77.4h6.4v10.5h8.4v5.9
	h-8.4v17.5c0,3.7,1.5,5.6,4.6,5.6c1.2,0,2.1-0.2,2.9-0.6l2.2,5.5C360.2,122.5,358.5,122.8,356.4,122.8L356.4,122.8z M423.3,121.7
	h-30.5v-6.4c9.1-9.2,15-15.2,17.6-18c2.3-2.6,3.8-4.5,4.6-5.8c0.8-1.3,1.2-3,1.2-4.9c0-2-0.8-3.8-2.4-5.3s-3.7-2.3-6.4-2.3
	c-2.4,0-4.4,0.7-5.9,2.1s-2.4,3-2.9,4.6l-5.9-2.4c0.8-2.5,2.5-4.9,5-7.1s5.8-3.4,9.8-3.4c4.4,0,8.1,1.4,10.9,4.1s4.3,5.9,4.3,9.7
	c0,4.7-2.5,9.7-7.6,15l-14,14.1h22.2L423.3,121.7L423.3,121.7z M460.2,115.6c-3.5,4.8-8.2,7.2-13.9,7.2c-5.7,0-10.4-2.4-13.9-7.2
	c-3.5-4.8-5.3-10.8-5.3-17.9s1.8-13.1,5.3-17.9s8.2-7.2,13.9-7.2c5.7,0,10.4,2.4,13.9,7.2c3.5,4.8,5.3,10.7,5.3,17.9
	C465.5,104.9,463.7,110.8,460.2,115.6z M446.2,116.7c3.8,0,6.9-1.8,9.2-5.4c2.3-3.6,3.5-8.1,3.5-13.5c0-5.5-1.2-10-3.5-13.5
	c-2.3-3.6-5.4-5.4-9.2-5.4c-3.9,0-7,1.8-9.2,5.4c-2.3,3.6-3.4,8.1-3.4,13.5s1.1,9.9,3.4,13.5S442.4,116.7,446.2,116.7z M485.9,121.7
	h-6.4V81.8l-9.3,4.1l-2.5-5.5l14.1-6.6h4.1L485.9,121.7L485.9,121.7z M521.2,118.7c-3.1,2.8-7,4.1-11.5,4.1c-4.6,0-8.4-1.4-11.5-4.1
	c-3.1-2.8-4.7-6.2-4.7-10.2c0-2.7,0.7-5,2.2-7c1.4-2,3.3-3.6,5.7-4.8v-0.3c-1.8-1.2-3.3-2.6-4.5-4.4s-1.8-3.7-1.8-5.6
	c0-3.9,1.4-7.1,4.1-9.7c2.8-2.6,6.3-3.9,10.5-3.9s7.7,1.3,10.5,3.9s4.1,5.8,4.1,9.7c0,2-0.6,3.8-1.8,5.6c-1.2,1.8-2.7,3.3-4.5,4.4
	v0.3c2.3,1.2,4.2,2.8,5.7,4.8c1.4,2,2.2,4.4,2.2,7C525.9,112.5,524.3,115.9,521.2,118.7L521.2,118.7z M502.8,114.3
	c1.9,1.6,4.2,2.4,6.9,2.4s5-0.8,6.9-2.4s2.8-3.6,2.8-6.2c0-2.5-0.9-4.5-2.8-6.1s-4.2-2.4-6.9-2.4s-5,0.8-6.9,2.4s-2.8,3.6-2.8,6.1
	S500.9,112.7,502.8,114.3z M503.9,91.6c1.5,1.4,3.4,2.1,5.8,2.1c2.3,0,4.3-0.7,5.8-2.1s2.3-3.2,2.3-5.4s-0.8-4-2.3-5.3s-3.4-2-5.8-2
	c-2.3,0-4.3,0.7-5.8,2s-2.3,3.1-2.3,5.3C501.6,88.4,502.4,90.2,503.9,91.6z"/>
<text transform="matrix(1 0 0 1 306.4999 57.2998)" class="st13 st14 st15">Cali</text>
<polygon class="st0" points="462,-85 454,-85 454,-85 462,-85 "/>
</svg>
